<svg id="Icon" xmlns="http://www.w3.org/2000/svg" width="854" height="854" viewBox="0 0 854 854">
  <path id="Path_10" data-name="Path 10" d="M0,0H854V854H0Z" fill="#fff" opacity="0"/>
  <path id="Path_9" data-name="Path 9" d="M-1531.847,3240.18a31.982,31.982,0,0,1,.99,3.535A35.535,35.535,0,0,1-1531.847,3240.18Zm-22.709-14.175c-18.772,7.017-52.407,18.165-61.233-16.459-3.574-14.024-.145-50.929-8.641-71.367-4.237-10.193-13.725-8.439-24.8-9.132-11.135-.7-23.876-3.868-34.505-24.131-19.724-41.345,23.23-55.9,39.821-95.679,16.008-38.375,3.216-66.252,19.381-90s54.206-25.493,76.558-51.786c17.833-20.976,15.387-42.462,13.67-50.291l.044-.088.035.1a36.89,36.89,0,0,0,11.882,16.582c7.25,5.681,22.315,6.185,28.2,16.673,14.107,25.15.855,44.087,16.3,64.777,7.864,10.533,16.444,10.035,24.533,9.536,7.8-.481,15.141-.961,20.951,8.44,11.836,19.153,5.017,62-11.461,78.51s-27.509,18.2-43.208,35.289-9.176,59.691-20.131,108.874c-3.659,16.427-19.786,30.492-23.359,43.741-5.143,19.066-2.858,34.066-1.322,40.583C-1534.047,3233.617-1540.32,3220.682-1554.556,3226.005Zm153.144-376.359c-28.5-3.623-47.324-36.724-80.9-44.7-26.786-6.366-44.819,5.567-51.016,10.651l-.1,0,.074-.077a36.905,36.905,0,0,0,9.38-18.115c1.77-9.038-4.62-22.69,2.055-32.692,16.005-23.988,38.894-20.778,50.315-43.934s-16.323-29.445-4.631-48.688,52.962-32.615,75.156-25.431,28.706,16.248,51.059,22.478,57.35-18.924,106.146-31.491c8.633-2.224,18.264-1.03,27.409.165,8.119,1.061,15.855,2.121,22.171.79,19.322-4.073,31.65-12.918,36.76-17.246-4.848,4.94-13.525,16.4-2.321,26.67,14.775,13.54,39.978,38.447,13.135,62.031-10.872,9.551-45.312,23.251-59.666,40.1-7.159,8.4-1.288,16.061,3.122,26.245,4.433,10.238,7.394,23.029-5.836,41.7-18.421,24.01-38.845,18.34-62.975,12.67-12.4-2.913-25.771-5.825-40.353-4.713-38.567,2.938-57.73,23.959-83.153,23.961A46.14,46.14,0,0,1-1401.412,2849.646Zm-285.8-10.905c-22.51-.5-54.727-29.559-59.6-52.371s-.283-32.984-6.063-55.457-45.064-40.2-80.345-76.18c-11.784-12.016-14.8-33.2-23.963-43.414-13.189-14.7-27.013-20.951-33.315-23.211,6.7,1.728,20.967,3.512,24.257-11.326,4.338-19.565,13.307-53.845,47.154-42.39,13.707,4.64,42.791,27.615,64.56,31.622,10.856,2,14.553-6.915,21.167-15.826,6.65-8.959,16.248-17.918,39.031-15.8,45.417,5.976,34.232,49.929,58.555,85.506,23.465,34.326,53.812,38.78,64.922,65.27s-8.142,59.346,1.735,92.411c7.88,26.381,27.23,36.031,34.733,38.856l.049.084-.1-.025a36.9,36.9,0,0,0-20.378.933c-8.712,2.986-17.34,15.346-29.34,14.566-28.776-1.867-37.441-23.294-63.2-21.608-25.526,1.672-17.493,28.362-39.236,28.362C-1686.8,2838.747-1687,2838.745-1687.208,2838.74Zm532.377-219.872a35.628,35.628,0,0,1-2.7,2.487A32.022,32.022,0,0,1-1154.831,2618.869ZM-1894,2587.01a35.556,35.556,0,0,1,3.5,1.1A32.01,32.01,0,0,1-1894,2587.01Z" transform="translate(1961.279 -2389.715)" fill="#fff"/>
</svg>
